<svg width="24" height="24" viewBox="0 0 24 24" fill="none" xmlns="http://www.w3.org/2000/svg">
<g id="Icon / 24 / Solid /  Edit_Solid">
<path id="Stroke 4" fill-rule="evenodd" clip-rule="evenodd" d="M20.9945 10.494C21.0755 10.984 21.1195 11.487 21.1195 12C21.1195 12.513 21.0755 13.016 20.9945 13.506C20.9645 13.681 21.0345 13.855 21.1805 13.957L21.8145 14.397C22.4025 14.805 22.5785 15.595 22.2215 16.214L20.7365 18.786C20.3795 19.405 19.6065 19.647 18.9055 19.316L18.2505 19.008C18.0905 18.933 17.9075 18.96 17.7715 19.072C16.9985 19.708 16.1215 20.22 15.1685 20.578C15.0035 20.64 14.8875 20.786 14.8725 20.961L14.8075 21.739C14.7485 22.452 14.1525 23 13.4375 23H10.4685C9.7535 23 9.1575 22.451 9.0985 21.739C9.0735 21.446 9.0495 21.161 9.0335 20.96C9.0185 20.785 8.9025 20.64 8.7375 20.578C7.7845 20.22 6.9075 19.708 6.1345 19.072C5.9985 18.96 5.8135 18.933 5.6545 19.008L4.9465 19.342C4.2995 19.647 3.5265 19.405 3.1695 18.786L1.6845 16.214C1.3275 15.595 1.5035 14.805 2.0915 14.397L2.7255 13.957C2.8715 13.855 2.9415 13.681 2.9115 13.506C2.8305 13.016 2.7865 12.513 2.7865 12C2.7865 11.487 2.8305 10.984 2.9115 10.494C2.9415 10.319 2.8715 10.145 2.7255 10.043L2.0915 9.603C1.5035 9.195 1.3275 8.405 1.6845 7.786L3.1695 5.214C3.5265 4.595 4.2995 4.353 5.0005 4.684L5.6555 4.992C5.8155 5.067 5.9985 5.04 6.1345 4.928C6.9075 4.292 7.7845 3.78 8.7375 3.422C8.9025 3.36 9.0185 3.214 9.0335 3.039L9.0985 2.261C9.1575 1.548 9.7535 1 10.4685 1H13.4375C14.1525 1 14.7485 1.549 14.8075 2.261C14.8325 2.554 14.8565 2.839 14.8725 3.04C14.8875 3.215 15.0035 3.36 15.1685 3.422C16.1215 3.78 16.9985 4.292 17.7715 4.928C17.9075 5.04 18.0925 5.067 18.2515 4.992L18.9595 4.658C19.6065 4.353 20.3795 4.595 20.7365 5.214L22.2215 7.786C22.5785 8.405 22.4025 9.195 21.8145 9.603L21.1805 10.043C21.0345 10.145 20.9645 10.319 20.9945 10.494ZM12 15C13.6569 15 15 13.6569 15 12C15 10.3431 13.6569 9 12 9C10.3431 9 9 10.3431 9 12C9 13.6569 10.3431 15 12 15Z" fill="#4B4B4B"/>
</g>
</svg>
